{"glyphs":{"0":{"ha":1078,"x_min":0,"x_max":0,"o":"m 75 486 b 539 0 75 196 279 0 b 1003 486 799 0 1003 196 b 539 972 1003 776 799 972 b 75 486 279 972 75 776 z m 808 486 b 539 194 808 307 694 194 b 269 486 382 194 269 307 b 539 778 269 665 382 778 b 808 486 694 778 808 665 z m 426 486 b 539 374 426 424 476 374 b 653 486 601 374 653 424 b 539 599 653 549 601 599 b 426 486 476 599 426 549 z "},"1":{"ha":679,"x_min":0,"x_max":0,"o":"m 379 972 l 29 629 l 164 489 l 349 671 l 349 0 l 543 0 l 543 972 z "},"2":{"ha":788,"x_min":0,"x_max":0,"o":"m 44 763 l 190 643 b 383 778 225 710 292 778 b 518 651 461 778 518 726 b 444 517 518 599 485 556 l 72 156 l 72 0 l 713 0 l 713 194 l 385 194 l 597 401 b 713 663 663 464 713 549 b 388 972 713 846 581 972 b 44 763 196 972 93 851 z "},"3":{"ha":775,"x_min":0,"x_max":0,"o":"m 44 815 l 176 668 b 364 778 221 740 293 778 b 497 681 444 778 497 742 b 368 582 497 621 449 583 l 294 582 l 294 392 l 368 392 b 497 293 449 390 497 353 b 364 194 497 231 447 194 b 176 306 292 194 219 231 l 43 161 b 363 0 94 71 210 0 b 692 269 571 0 692 110 b 556 486 692 388 625 458 b 692 703 624 514 692 585 b 363 972 692 858 569 972 b 44 815 211 972 96 900 z "},"4":{"ha":944,"x_min":0,"x_max":0,"o":"m 582 972 l 42 321 l 42 154 l 547 154 l 547 0 l 742 0 l 742 154 l 886 154 l 886 349 l 742 349 l 742 972 z m 547 349 l 317 349 l 547 629 z "},"5":{"ha":790,"x_min":0,"x_max":0,"o":"m 111 972 l 111 443 b 322 474 193 464 269 474 b 518 335 458 474 518 419 b 354 194 518 239 443 194 b 131 263 288 194 206 218 l 49 88 b 356 0 118 40 236 0 b 714 339 560 0 714 118 b 361 667 714 550 572 667 b 306 661 343 667 311 663 l 306 778 l 714 778 l 714 972 z "},"6":{"ha":803,"x_min":0,"x_max":0,"o":"m 414 0 b 742 332 600 0 742 131 b 425 656 742 533 600 656 b 272 611 378 656 318 638 l 272 614 b 457 778 279 697 343 778 b 626 736 515 778 572 761 l 703 913 b 468 972 617 953 546 972 b 63 447 165 972 63 714 b 128 150 63 328 82 226 b 414 0 183 60 276 0 z m 407 461 b 547 329 489 461 547 408 b 407 194 547 249 489 194 b 265 328 328 194 265 244 b 407 461 265 407 324 461 z "},"7":{"ha":760,"x_min":0,"x_max":0,"o":"m 51 972 l 51 778 l 479 778 l 71 0 l 290 0 l 714 810 l 714 972 z "},"8":{"ha":804,"x_min":0,"x_max":0,"o":"m 83 706 b 213 486 83 613 128 531 b 83 267 126 442 83 358 b 401 0 83 104 215 0 b 721 267 588 0 721 104 b 589 486 721 356 676 439 b 721 707 676 533 721 617 b 401 972 721 868 588 972 b 83 706 215 972 83 868 z m 526 682 b 403 583 526 621 474 583 b 278 682 331 583 278 621 b 403 778 278 739 326 778 b 526 682 478 778 526 739 z m 526 290 b 403 194 526 233 478 194 b 278 290 326 194 278 233 b 403 389 278 353 331 389 b 526 290 474 389 526 353 z "},"9":{"ha":804,"x_min":0,"x_max":0,"o":"m 546 646 b 404 511 546 565 486 511 b 264 643 321 511 264 564 b 404 778 264 724 322 778 b 546 646 483 778 546 728 z m 69 638 b 383 317 69 436 211 317 b 536 360 446 317 492 335 l 536 358 b 350 194 529 278 471 194 b 172 235 299 194 231 208 l 103 58 b 349 0 186 19 263 0 b 749 518 646 0 749 232 b 668 849 749 658 725 769 b 408 972 613 925 526 972 b 69 638 211 972 69 839 z "},"Ð":{"ha":983,"x_min":0,"x_max":0,"o":"m 103 972 l 103 0 l 456 0 b 932 486 731 0 932 206 b 456 972 932 767 731 972 z m 738 486 b 456 194 738 318 622 194 l 297 194 l 297 778 l 456 778 b 738 486 622 778 738 654 z "},"Ł":{"ha":751,"x_min":0,"x_max":0,"o":"m 103 972 l 103 0 l 739 0 l 739 194 l 297 194 l 297 972 z "},"ł":{"ha":344,"x_min":0,"x_max":0,"o":"m 81 972 l 81 0 l 265 0 l 265 972 z "},"Š":{"ha":768,"x_min":0,"x_max":0,"o":"m 71 693 b 332 403 71 507 210 442 b 504 282 428 374 504 354 b 386 194 504 228 461 194 b 233 321 303 194 253 235 l 60 246 b 385 0 97 72 235 0 b 699 282 563 0 699 100 b 443 569 699 463 575 526 b 265 692 340 603 265 622 b 383 778 265 740 304 778 b 532 656 460 778 513 743 l 708 726 b 385 972 674 886 549 972 b 71 693 206 972 71 869 z "},"š":{"ha":664,"x_min":0,"x_max":0,"o":"m 64 490 b 294 271 64 339 192 292 b 449 200 411 246 449 238 b 356 147 449 161 407 147 b 136 238 258 147 182 182 l 29 99 b 338 -17 90 21 204 -17 b 638 210 522 -17 638 51 b 415 428 638 356 536 401 b 254 497 292 454 254 463 b 343 546 254 528 286 546 b 531 475 417 546 492 518 l 633 608 b 357 711 572 671 483 711 b 64 490 175 711 64 631 z "},"Ý":{"ha":986,"x_min":0,"x_max":0,"o":"m 590 0 l 590 376 l 988 972 l 753 972 l 493 583 l 233 972 l -1 972 l 396 376 l 396 0 z "},"ý":{"ha":747,"x_min":0,"x_max":0,"o":"m 315 -278 l 753 694 l 558 694 l 388 314 l 210 694 l -4 694 l 290 100 l 121 -278 z "},"Þ":{"ha":858,"x_min":0,"x_max":0,"o":"m 103 972 l 103 0 l 297 0 l 297 293 l 483 293 b 825 632 682 293 825 436 b 483 972 825 828 682 972 z m 631 632 b 483 488 631 549 576 488 l 297 488 l 297 778 l 483 778 b 631 632 576 778 631 717 z "},"þ":{"ha":849,"x_min":0,"x_max":0,"o":"m 440 161 b 258 347 338 161 258 232 b 440 533 258 461 338 533 b 622 347 544 533 622 460 b 440 161 622 235 544 161 z m 264 -278 l 264 100 b 497 -18 311 33 389 -18 b 811 347 667 -18 811 113 b 494 713 811 582 667 713 b 264 597 393 713 314 668 l 264 694 l 81 694 l 81 -278 z "},"Ž":{"ha":924,"x_min":0,"x_max":0,"o":"m 65 972 l 65 778 l 568 778 l 65 140 l 65 0 l 858 0 l 858 194 l 356 194 l 858 832 l 858 972 z "},"ž":{"ha":678,"x_min":0,"x_max":0,"o":"m 58 694 l 58 525 l 383 525 l 33 143 l 33 0 l 644 0 l 644 169 l 282 169 l 633 551 l 633 694 z "}," ":{"ha":394,"x_min":0,"x_max":0,"o":""},"!":{"ha":451,"x_min":0,"x_max":0,"o":"m 225 264 b 94 132 150 264 94 207 b 225 0 94 57 150 0 b 358 132 300 0 358 57 b 225 264 358 207 300 264 z "},",":{"ha":458,"x_min":0,"x_max":0,"o":"m 18 -201 l 161 -278 l 417 181 l 274 260 z "},"-":{"ha":869,"x_min":0,"x_max":0,"o":"m 111 514 l 111 319 l 758 319 l 758 514 z "},".":{"ha":451,"x_min":0,"x_max":0,"o":"m 225 264 b 94 132 150 264 94 207 b 225 0 94 57 150 0 b 358 132 300 0 358 57 b 225 264 358 207 300 264 z "},":":{"ha":451,"x_min":0,"x_max":0,"o":"m 225 264 b 94 132 150 264 94 207 b 225 0 94 57 150 0 b 358 132 300 0 358 57 b 225 264 358 207 300 264 z "},";":{"ha":458,"x_min":0,"x_max":0,"o":"m 18 -201 l 161 -278 l 417 181 l 274 260 z "},"?":{"ha":451,"x_min":0,"x_max":0,"o":"m 225 264 b 94 132 150 264 94 207 b 225 0 94 57 150 0 b 358 132 300 0 358 57 b 225 264 358 207 300 264 z "},"A":{"ha":1100,"x_min":0,"x_max":0,"o":"m 550 706 l 715 347 l 385 347 z m 876 0 l 1090 0 l 640 972 l 460 972 l 10 0 l 224 0 l 294 153 l 806 153 z "},"B":{"ha":871,"x_min":0,"x_max":0,"o":"m 103 972 l 103 0 l 517 0 b 807 274 700 0 807 117 b 686 486 807 374 761 449 b 807 699 760 522 807 597 b 517 972 807 856 700 972 z m 613 683 b 513 583 613 624 571 583 l 297 583 l 297 778 l 513 778 b 613 683 575 778 613 739 z m 613 289 b 513 194 613 232 575 194 l 297 194 l 297 389 l 513 389 b 613 289 571 389 613 350 z "},"C":{"ha":903,"x_min":0,"x_max":0,"o":"m 53 488 b 536 0 53 210 264 0 b 767 50 618 0 690 18 l 725 240 b 536 194 654 204 588 194 b 247 486 369 194 247 314 b 538 778 247 658 369 778 b 797 660 636 778 725 736 l 890 839 b 538 972 796 926 668 972 b 53 488 263 972 53 764 z "},"D":{"ha":983,"x_min":0,"x_max":0,"o":"m 103 972 l 103 0 l 456 0 b 932 486 731 0 932 206 b 456 972 932 767 731 972 z m 738 486 b 456 194 738 318 622 194 l 297 194 l 297 778 l 456 778 b 738 486 622 778 738 654 z "},"E":{"ha":807,"x_min":0,"x_max":0,"o":"m 103 972 l 103 0 l 731 0 l 731 194 l 297 194 l 297 389 l 731 389 l 731 583 l 297 583 l 297 778 l 731 778 l 731 972 z "},"F":{"ha":776,"x_min":0,"x_max":0,"o":"m 103 972 l 103 0 l 297 0 l 297 389 l 731 389 l 731 583 l 297 583 l 297 778 l 731 778 l 731 972 z "},"G":{"ha":907,"x_min":0,"x_max":0,"o":"m 53 485 b 540 0 53 204 256 0 b 774 39 624 0 697 15 l 774 551 l 397 551 l 397 357 l 579 357 l 579 199 b 540 194 567 196 556 194 b 247 486 365 194 247 314 b 539 778 247 658 367 778 b 797 660 639 778 725 736 l 890 839 b 543 972 796 926 672 972 b 53 485 254 972 53 765 z "},"H":{"ha":1019,"x_min":0,"x_max":0,"o":"m 724 972 l 724 583 l 297 583 l 297 972 l 103 972 l 103 0 l 297 0 l 297 389 l 724 389 l 724 0 l 918 0 l 918 972 z "},"I":{"ha":400,"x_min":0,"x_max":0,"o":"m 103 972 l 103 0 l 297 0 l 297 972 z "},"J":{"ha":724,"x_min":0,"x_max":0,"o":"m 442 972 l 442 336 b 324 194 442 244 401 194 b 189 381 231 194 189 267 l 13 301 b 322 0 13 144 119 0 b 636 335 499 0 636 111 l 636 972 z "},"K":{"ha":979,"x_min":0,"x_max":0,"o":"m 733 0 l 981 0 l 557 547 l 979 972 l 706 972 l 297 563 l 297 972 l 103 972 l 103 0 l 297 0 l 297 286 l 419 408 z "},"L":{"ha":751,"x_min":0,"x_max":0,"o":"m 103 972 l 103 0 l 739 0 l 739 194 l 297 194 l 297 972 z "},"M":{"ha":1399,"x_min":0,"x_max":0,"o":"m 297 565 l 619 0 l 779 0 l 1101 565 l 1101 0 l 1296 0 l 1296 972 l 1108 972 l 700 254 l 290 972 l 103 972 l 103 0 l 297 0 z "},"N":{"ha":1083,"x_min":0,"x_max":0,"o":"m 792 972 l 792 333 l 267 972 l 97 972 l 97 0 l 292 0 l 292 639 l 817 0 l 986 0 l 986 972 z "},"O":{"ha":1076,"x_min":0,"x_max":0,"o":"m 53 486 b 539 0 53 208 261 0 b 1025 486 817 0 1025 208 b 539 972 1025 764 817 972 b 53 486 261 972 53 764 z m 831 486 b 539 194 831 317 708 194 b 247 486 368 194 247 317 b 539 778 247 657 368 778 b 831 486 708 778 831 657 z "},"P":{"ha":858,"x_min":0,"x_max":0,"o":"m 103 972 l 103 0 l 297 0 l 297 293 l 483 293 b 825 632 682 293 825 436 b 483 972 825 828 682 972 z m 631 632 b 483 488 631 549 576 488 l 297 488 l 297 778 l 483 778 b 631 632 576 778 631 717 z "},"Q":{"ha":1129,"x_min":0,"x_max":0,"o":"m 1040 -156 l 1174 -17 l 946 213 b 1025 486 996 289 1025 383 b 539 972 1025 764 817 972 b 53 486 261 972 53 764 b 539 0 53 208 261 0 b 808 76 640 0 732 28 z m 539 194 b 247 486 368 194 247 317 b 539 778 247 657 368 778 b 831 486 708 778 831 657 b 803 356 831 438 821 394 l 582 576 l 449 435 l 664 219 b 539 194 626 203 585 194 z "},"R":{"ha":954,"x_min":0,"x_max":0,"o":"m 704 -1 l 933 0 l 717 344 b 871 633 811 403 871 508 b 528 972 871 828 728 972 l 103 972 l 103 0 l 297 0 l 297 293 l 521 293 z m 297 488 l 297 778 l 528 778 b 676 633 621 778 676 717 b 613 510 676 579 654 535 l 536 632 l 369 535 l 399 488 z "},"S":{"ha":768,"x_min":0,"x_max":0,"o":"m 71 693 b 332 403 71 507 210 442 b 504 282 428 374 504 354 b 386 194 504 228 461 194 b 233 321 303 194 253 235 l 60 246 b 385 0 97 72 235 0 b 699 282 563 0 699 100 b 443 569 699 463 575 526 b 265 692 340 603 265 622 b 383 778 265 740 304 778 b 532 656 460 778 513 743 l 708 726 b 385 972 674 886 549 972 b 71 693 206 972 71 869 z "},"T":{"ha":911,"x_min":0,"x_max":0,"o":"m 904 778 l 904 972 l 7 972 l 7 778 l 358 778 l 358 0 l 553 0 l 553 778 z "},"U":{"ha":1065,"x_min":0,"x_max":0,"o":"m 790 972 l 790 450 b 533 194 790 292 681 194 b 275 450 386 194 275 292 l 275 972 l 81 972 l 81 450 b 533 0 81 183 275 0 b 985 450 792 0 985 183 l 985 972 z "},"V":{"ha":1088,"x_min":0,"x_max":0,"o":"m 629 0 l 1089 972 l 874 972 l 544 274 l 214 972 l -1 972 l 458 0 z "},"W":{"ha":1722,"x_min":0,"x_max":0,"o":"m 572 0 l 861 693 l 1150 0 l 1332 0 l 1708 972 l 1500 972 l 1238 294 l 957 972 l 765 972 l 485 294 l 222 972 l 14 972 l 390 0 z "},"X":{"ha":1063,"x_min":0,"x_max":0,"o":"m 264 0 l 532 331 l 799 0 l 1050 0 l 657 486 l 1050 972 l 799 972 l 531 642 l 263 972 l 13 972 l 406 486 l 13 0 z "},"Y":{"ha":986,"x_min":0,"x_max":0,"o":"m 590 0 l 590 376 l 988 972 l 753 972 l 493 583 l 233 972 l -1 972 l 396 376 l 396 0 z "},"Z":{"ha":924,"x_min":0,"x_max":0,"o":"m 65 972 l 65 778 l 568 778 l 65 140 l 65 0 l 858 0 l 858 194 l 356 194 l 858 832 l 858 972 z "},"_":{"ha":869,"x_min":0,"x_max":0,"o":"m 111 514 l 111 319 l 758 319 l 758 514 z "},"a":{"ha":747,"x_min":0,"x_max":0,"o":"m 489 281 b 329 138 489 204 426 138 b 231 211 265 138 231 167 b 317 288 231 250 260 279 l 489 308 z m 58 553 l 194 456 b 368 544 221 522 296 544 b 489 475 450 544 489 515 l 489 464 b 453 436 489 447 479 439 l 263 419 b 40 201 135 407 40 328 b 275 -15 40 74 138 -15 b 489 93 383 -15 453 38 l 489 -1 l 672 -1 l 672 428 b 368 710 672 621 571 710 b 58 553 217 710 104 657 z "},"b":{"ha":849,"x_min":0,"x_max":0,"o":"m 81 972 l 81 0 l 264 0 l 264 97 b 494 -18 314 26 393 -18 b 811 347 667 -18 811 113 b 497 713 811 582 667 713 b 264 594 389 713 311 661 l 264 972 z m 622 347 b 440 161 622 235 544 161 b 258 347 338 161 258 233 b 440 533 258 463 338 533 b 622 347 544 533 622 460 z "},"c":{"ha":697,"x_min":0,"x_max":0,"o":"m 38 347 b 406 -17 38 126 193 -17 b 674 86 522 -17 614 26 l 572 233 b 408 163 533 194 479 163 b 226 347 306 163 226 236 b 408 532 226 458 304 532 b 568 463 478 532 529 501 l 672 610 b 408 711 610 672 519 711 b 38 347 194 711 38 567 z "},"d":{"ha":849,"x_min":0,"x_max":0,"o":"m 408 533 b 590 347 511 533 590 463 b 408 161 590 233 511 161 b 226 347 304 161 226 235 b 408 533 226 460 304 533 z m 585 972 l 585 594 b 351 713 538 661 460 713 b 38 347 182 713 38 582 b 354 -18 38 113 182 -18 b 585 97 456 -18 535 26 l 585 0 l 768 0 l 768 972 z "},"e":{"ha":771,"x_min":0,"x_max":0,"o":"m 38 347 b 410 -17 38 140 175 -17 b 686 75 543 -17 629 28 l 610 226 b 413 156 561 185 496 156 b 226 289 332 156 249 196 l 225 292 l 736 292 l 736 342 b 393 711 736 565 606 711 b 38 347 175 711 38 553 z m 536 425 l 224 425 b 388 556 242 508 300 556 b 536 425 476 556 528 500 z "},"f":{"ha":561,"x_min":0,"x_max":0,"o":"m 533 540 l 533 694 l 336 694 l 336 710 b 435 817 336 782 361 817 b 540 806 467 817 497 813 l 540 975 b 404 988 494 982 456 988 b 153 729 261 988 153 910 l 153 694 l 13 694 l 13 540 l 153 540 l 153 0 l 336 0 l 336 540 z "},"g":{"ha":857,"x_min":0,"x_max":0,"o":"m 594 347 b 414 161 594 233 518 161 b 232 347 310 161 232 235 b 414 533 232 460 310 533 b 594 347 518 533 594 463 z m 43 350 b 369 -7 43 119 185 -7 b 593 100 469 -7 547 35 l 593 56 b 389 -124 593 -44 544 -124 b 179 -36 304 -124 238 -93 l 89 -187 b 396 -296 161 -254 256 -296 b 774 46 688 -296 774 -133 l 774 694 l 590 694 l 590 597 b 364 711 551 660 471 711 b 43 350 192 711 43 582 z "},"h":{"ha":807,"x_min":0,"x_max":0,"o":"m 81 972 l 81 0 l 264 0 l 264 332 b 415 535 264 456 310 535 b 542 385 496 535 542 485 l 542 0 l 729 0 l 729 431 b 483 711 729 606 646 711 b 264 594 381 711 310 665 l 264 972 z "},"i":{"ha":364,"x_min":0,"x_max":0,"o":"m 65 893 b 182 776 65 826 115 776 b 300 893 249 776 300 826 b 182 1011 300 960 249 1011 b 65 893 115 1011 65 960 z m 90 694 l 90 0 l 274 0 l 274 694 z "},"j":{"ha":385,"x_min":0,"x_max":0,"o":"m 83 893 b 200 776 83 826 133 776 b 318 893 267 776 318 826 b 200 1011 318 960 267 1011 b 83 893 133 1011 83 960 z m 108 694 l 108 -4 b -31 -114 108 -78 81 -114 l -50 -114 l -50 -283 b 1 -285 -31 -285 -19 -285 b 292 -21 188 -285 292 -206 l 292 694 z "},"k":{"ha":768,"x_min":0,"x_max":0,"o":"m 522 0 l 758 0 l 460 396 l 758 694 l 515 694 l 264 428 l 264 972 l 81 972 l 81 0 l 264 0 l 264 201 l 336 272 z "},"l":{"ha":344,"x_min":0,"x_max":0,"o":"m 81 972 l 81 0 l 265 0 l 265 972 z "},"m":{"ha":1269,"x_min":0,"x_max":0,"o":"m 690 582 b 475 711 651 667 578 711 b 258 593 367 711 300 660 l 258 694 l 81 694 l 81 0 l 264 0 l 264 332 b 414 535 264 450 303 535 b 540 385 497 535 540 483 l 540 0 l 724 0 l 724 332 b 876 535 724 450 764 535 b 1001 385 958 535 1001 483 l 1001 0 l 1186 0 l 1186 422 b 924 711 1186 603 1086 711 b 690 582 808 711 732 657 z "},"n":{"ha":813,"x_min":0,"x_max":0,"o":"m 258 594 l 258 694 l 81 694 l 81 0 l 264 0 l 264 332 b 415 535 264 456 308 535 b 542 385 493 535 542 489 l 542 0 l 729 0 l 729 431 b 483 711 729 606 646 711 b 258 594 382 711 307 663 z "},"o":{"ha":822,"x_min":0,"x_max":0,"o":"m 38 347 b 411 -17 38 131 197 -17 b 785 347 625 -17 785 131 b 411 711 785 564 625 711 b 38 347 197 711 38 564 z m 596 347 b 411 163 596 236 515 163 b 226 347 307 163 226 236 b 411 532 226 458 307 532 b 596 347 515 532 596 458 z "},"p":{"ha":849,"x_min":0,"x_max":0,"o":"m 440 161 b 258 347 338 161 258 232 b 440 533 258 461 338 533 b 622 347 544 533 622 460 b 440 161 622 235 544 161 z m 264 -278 l 264 100 b 497 -18 311 33 389 -18 b 811 347 667 -18 811 113 b 494 713 811 582 667 713 b 264 597 393 713 314 668 l 264 694 l 81 694 l 81 -278 z "},"q":{"ha":849,"x_min":0,"x_max":0,"o":"m 768 -278 l 768 694 l 585 694 l 585 597 b 354 713 535 668 456 713 b 38 347 182 713 38 582 b 351 -18 38 113 182 -18 b 585 100 460 -18 538 33 l 585 -278 z m 226 347 b 408 533 226 460 304 533 b 590 347 511 533 590 461 b 408 161 590 232 511 161 b 226 347 304 161 226 235 z "},"r":{"ha":536,"x_min":0,"x_max":0,"o":"m 257 581 l 257 694 l 81 694 l 81 0 l 264 0 l 264 314 b 439 515 264 447 318 515 b 522 504 468 515 497 513 l 522 701 b 454 711 500 707 479 711 b 257 581 357 711 294 661 z "},"s":{"ha":664,"x_min":0,"x_max":0,"o":"m 64 490 b 294 271 64 339 192 292 b 449 200 411 246 449 238 b 356 147 449 161 407 147 b 136 238 258 147 182 182 l 29 99 b 338 -17 90 21 204 -17 b 638 210 522 -17 638 51 b 415 428 638 356 536 401 b 254 497 292 454 254 463 b 343 546 254 528 286 546 b 531 475 417 546 492 518 l 633 608 b 357 711 572 671 483 711 b 64 490 175 711 64 631 z "},"t":{"ha":547,"x_min":0,"x_max":0,"o":"m 497 14 l 497 188 b 396 176 447 179 424 176 b 326 239 349 176 326 194 l 326 540 l 503 540 l 503 694 l 326 694 l 326 881 l 143 881 l 143 694 l 17 694 l 17 540 l 143 540 l 143 213 b 347 -7 143 54 218 -7 b 497 14 393 -7 446 1 z "},"u":{"ha":803,"x_min":0,"x_max":0,"o":"m 535 694 l 535 363 b 385 160 535 243 488 160 b 268 308 304 160 268 210 l 268 694 l 81 694 l 81 263 b 321 -17 81 92 160 -17 b 542 106 425 -17 494 35 l 542 0 l 719 0 l 719 694 z "},"v":{"ha":756,"x_min":0,"x_max":0,"o":"m 447 0 l 760 694 l 556 694 l 378 264 l 201 694 l -4 694 l 308 0 z "},"w":{"ha":1182,"x_min":0,"x_max":0,"o":"m 417 0 l 592 413 l 765 0 l 904 0 l 1186 694 l 986 694 l 832 281 l 665 694 l 517 694 l 351 281 l 196 694 l -4 694 l 278 0 z "},"x":{"ha":782,"x_min":0,"x_max":0,"o":"m 551 0 l 772 0 l 501 354 l 761 694 l 539 694 l 390 500 l 242 694 l 21 694 l 281 356 l 10 0 l 231 0 l 392 210 z "},"y":{"ha":747,"x_min":0,"x_max":0,"o":"m 315 -278 l 753 694 l 558 694 l 388 314 l 210 694 l -4 694 l 290 100 l 121 -278 z "},"z":{"ha":678,"x_min":0,"x_max":0,"o":"m 58 694 l 58 525 l 383 525 l 33 143 l 33 0 l 644 0 l 644 169 l 282 169 l 633 551 l 633 694 z "},"Ä":{"ha":1100,"x_min":0,"x_max":0,"o":"m 550 706 l 715 347 l 385 347 z m 876 0 l 1090 0 l 640 972 l 460 972 l 10 0 l 224 0 l 294 153 l 806 153 z "},"Å":{"ha":1100,"x_min":0,"x_max":0,"o":"m 550 706 l 715 347 l 385 347 z m 876 0 l 1090 0 l 640 972 l 460 972 l 10 0 l 224 0 l 294 153 l 806 153 z "},"Ç":{"ha":903,"x_min":0,"x_max":0,"o":"m 53 488 b 536 0 53 210 264 0 b 767 50 618 0 690 18 l 725 240 b 536 194 654 204 588 194 b 247 486 369 194 247 314 b 538 778 247 658 369 778 b 797 660 636 778 725 736 l 890 839 b 538 972 796 926 668 972 b 53 488 263 972 53 764 z "},"É":{"ha":807,"x_min":0,"x_max":0,"o":"m 103 972 l 103 0 l 731 0 l 731 194 l 297 194 l 297 389 l 731 389 l 731 583 l 297 583 l 297 778 l 731 778 l 731 972 z "},"Ñ":{"ha":1083,"x_min":0,"x_max":0,"o":"m 792 972 l 792 333 l 267 972 l 97 972 l 97 0 l 292 0 l 292 639 l 817 0 l 986 0 l 986 972 z "},"Ö":{"ha":1076,"x_min":0,"x_max":0,"o":"m 53 486 b 539 0 53 208 261 0 b 1025 486 817 0 1025 208 b 539 972 1025 764 817 972 b 53 486 261 972 53 764 z m 831 486 b 539 194 831 317 708 194 b 247 486 368 194 247 317 b 539 778 247 657 368 778 b 831 486 708 778 831 657 z "},"Ü":{"ha":1065,"x_min":0,"x_max":0,"o":"m 790 972 l 790 450 b 533 194 790 292 681 194 b 275 450 386 194 275 292 l 275 972 l 81 972 l 81 450 b 533 0 81 183 275 0 b 985 450 792 0 985 183 l 985 972 z "},"á":{"ha":747,"x_min":0,"x_max":0,"o":"m 489 281 b 329 138 489 204 426 138 b 231 211 265 138 231 167 b 317 288 231 250 260 279 l 489 308 z m 58 553 l 194 456 b 368 544 221 522 296 544 b 489 475 450 544 489 515 l 489 464 b 453 436 489 447 479 439 l 263 419 b 40 201 135 407 40 328 b 275 -15 40 74 138 -15 b 489 93 383 -15 453 38 l 489 -1 l 672 -1 l 672 428 b 368 710 672 621 571 710 b 58 553 217 710 104 657 z "},"à":{"ha":747,"x_min":0,"x_max":0,"o":"m 489 281 b 329 138 489 204 426 138 b 231 211 265 138 231 167 b 317 288 231 250 260 279 l 489 308 z m 58 553 l 194 456 b 368 544 221 522 296 544 b 489 475 450 544 489 515 l 489 464 b 453 436 489 447 479 439 l 263 419 b 40 201 135 407 40 328 b 275 -15 40 74 138 -15 b 489 93 383 -15 453 38 l 489 -1 l 672 -1 l 672 428 b 368 710 672 621 571 710 b 58 553 217 710 104 657 z "},"â":{"ha":747,"x_min":0,"x_max":0,"o":"m 489 281 b 329 138 489 204 426 138 b 231 211 265 138 231 167 b 317 288 231 250 260 279 l 489 308 z m 58 553 l 194 456 b 368 544 221 522 296 544 b 489 475 450 544 489 515 l 489 464 b 453 436 489 447 479 439 l 263 419 b 40 201 135 407 40 328 b 275 -15 40 74 138 -15 b 489 93 383 -15 453 38 l 489 -1 l 672 -1 l 672 428 b 368 710 672 621 571 710 b 58 553 217 710 104 657 z "},"ä":{"ha":747,"x_min":0,"x_max":0,"o":"m 489 281 b 329 138 489 204 426 138 b 231 211 265 138 231 167 b 317 288 231 250 260 279 l 489 308 z m 58 553 l 194 456 b 368 544 221 522 296 544 b 489 475 450 544 489 515 l 489 464 b 453 436 489 447 479 439 l 263 419 b 40 201 135 407 40 328 b 275 -15 40 74 138 -15 b 489 93 383 -15 453 38 l 489 -1 l 672 -1 l 672 428 b 368 710 672 621 571 710 b 58 553 217 710 104 657 z "},"ã":{"ha":747,"x_min":0,"x_max":0,"o":"m 489 281 b 329 138 489 204 426 138 b 231 211 265 138 231 167 b 317 288 231 250 260 279 l 489 308 z m 58 553 l 194 456 b 368 544 221 522 296 544 b 489 475 450 544 489 515 l 489 464 b 453 436 489 447 479 439 l 263 419 b 40 201 135 407 40 328 b 275 -15 40 74 138 -15 b 489 93 383 -15 453 38 l 489 -1 l 672 -1 l 672 428 b 368 710 672 621 571 710 b 58 553 217 710 104 657 z "},"å":{"ha":747,"x_min":0,"x_max":0,"o":"m 489 281 b 329 138 489 204 426 138 b 231 211 265 138 231 167 b 317 288 231 250 260 279 l 489 308 z m 58 553 l 194 456 b 368 544 221 522 296 544 b 489 475 450 544 489 515 l 489 464 b 453 436 489 447 479 439 l 263 419 b 40 201 135 407 40 328 b 275 -15 40 74 138 -15 b 489 93 383 -15 453 38 l 489 -1 l 672 -1 l 672 428 b 368 710 672 621 571 710 b 58 553 217 710 104 657 z "},"ç":{"ha":697,"x_min":0,"x_max":0,"o":"m 38 347 b 406 -17 38 126 193 -17 b 674 86 522 -17 614 26 l 572 233 b 408 163 533 194 479 163 b 226 347 306 163 226 236 b 408 532 226 458 304 532 b 568 463 478 532 529 501 l 672 610 b 408 711 610 672 519 711 b 38 347 194 711 38 567 z "},"é":{"ha":771,"x_min":0,"x_max":0,"o":"m 38 347 b 410 -17 38 140 175 -17 b 686 75 543 -17 629 28 l 610 226 b 413 156 561 185 496 156 b 226 289 332 156 249 196 l 225 292 l 736 292 l 736 342 b 393 711 736 565 606 711 b 38 347 175 711 38 553 z m 536 425 l 224 425 b 388 556 242 508 300 556 b 536 425 476 556 528 500 z "},"è":{"ha":771,"x_min":0,"x_max":0,"o":"m 38 347 b 410 -17 38 140 175 -17 b 686 75 543 -17 629 28 l 610 226 b 413 156 561 185 496 156 b 226 289 332 156 249 196 l 225 292 l 736 292 l 736 342 b 393 711 736 565 606 711 b 38 347 175 711 38 553 z m 536 425 l 224 425 b 388 556 242 508 300 556 b 536 425 476 556 528 500 z "},"ê":{"ha":771,"x_min":0,"x_max":0,"o":"m 38 347 b 410 -17 38 140 175 -17 b 686 75 543 -17 629 28 l 610 226 b 413 156 561 185 496 156 b 226 289 332 156 249 196 l 225 292 l 736 292 l 736 342 b 393 711 736 565 606 711 b 38 347 175 711 38 553 z m 536 425 l 224 425 b 388 556 242 508 300 556 b 536 425 476 556 528 500 z "},"ë":{"ha":771,"x_min":0,"x_max":0,"o":"m 38 347 b 410 -17 38 140 175 -17 b 686 75 543 -17 629 28 l 610 226 b 413 156 561 185 496 156 b 226 289 332 156 249 196 l 225 292 l 736 292 l 736 342 b 393 711 736 565 606 711 b 38 347 175 711 38 553 z m 536 425 l 224 425 b 388 556 242 508 300 556 b 536 425 476 556 528 500 z "},"í":{"ha":364,"x_min":0,"x_max":0,"o":"m 65 893 b 182 776 65 826 115 776 b 300 893 249 776 300 826 b 182 1011 300 960 249 1011 b 65 893 115 1011 65 960 z m 90 694 l 90 0 l 274 0 l 274 694 z "},"ì":{"ha":364,"x_min":0,"x_max":0,"o":"m 65 893 b 182 776 65 826 115 776 b 300 893 249 776 300 826 b 182 1011 300 960 249 1011 b 65 893 115 1011 65 960 z m 90 694 l 90 0 l 274 0 l 274 694 z "},"î":{"ha":364,"x_min":0,"x_max":0,"o":"m 65 893 b 182 776 65 826 115 776 b 300 893 249 776 300 826 b 182 1011 300 960 249 1011 b 65 893 115 1011 65 960 z m 90 694 l 90 0 l 274 0 l 274 694 z "},"ï":{"ha":364,"x_min":0,"x_max":0,"o":"m 65 893 b 182 776 65 826 115 776 b 300 893 249 776 300 826 b 182 1011 300 960 249 1011 b 65 893 115 1011 65 960 z m 90 694 l 90 0 l 274 0 l 274 694 z "},"ñ":{"ha":813,"x_min":0,"x_max":0,"o":"m 258 594 l 258 694 l 81 694 l 81 0 l 264 0 l 264 332 b 415 535 264 456 308 535 b 542 385 493 535 542 489 l 542 0 l 729 0 l 729 431 b 483 711 729 606 646 711 b 258 594 382 711 307 663 z "},"ó":{"ha":822,"x_min":0,"x_max":0,"o":"m 38 347 b 411 -17 38 131 197 -17 b 785 347 625 -17 785 131 b 411 711 785 564 625 711 b 38 347 197 711 38 564 z m 596 347 b 411 163 596 236 515 163 b 226 347 307 163 226 236 b 411 532 226 458 307 532 b 596 347 515 532 596 458 z "},"ò":{"ha":822,"x_min":0,"x_max":0,"o":"m 38 347 b 411 -17 38 131 197 -17 b 785 347 625 -17 785 131 b 411 711 785 564 625 711 b 38 347 197 711 38 564 z m 596 347 b 411 163 596 236 515 163 b 226 347 307 163 226 236 b 411 532 226 458 307 532 b 596 347 515 532 596 458 z "},"ô":{"ha":822,"x_min":0,"x_max":0,"o":"m 38 347 b 411 -17 38 131 197 -17 b 785 347 625 -17 785 131 b 411 711 785 564 625 711 b 38 347 197 711 38 564 z m 596 347 b 411 163 596 236 515 163 b 226 347 307 163 226 236 b 411 532 226 458 307 532 b 596 347 515 532 596 458 z "},"ö":{"ha":822,"x_min":0,"x_max":0,"o":"m 38 347 b 411 -17 38 131 197 -17 b 785 347 625 -17 785 131 b 411 711 785 564 625 711 b 38 347 197 711 38 564 z m 596 347 b 411 163 596 236 515 163 b 226 347 307 163 226 236 b 411 532 226 458 307 532 b 596 347 515 532 596 458 z "},"õ":{"ha":822,"x_min":0,"x_max":0,"o":"m 38 347 b 411 -17 38 131 197 -17 b 785 347 625 -17 785 131 b 411 711 785 564 625 711 b 38 347 197 711 38 564 z m 596 347 b 411 163 596 236 515 163 b 226 347 307 163 226 236 b 411 532 226 458 307 532 b 596 347 515 532 596 458 z "},"ú":{"ha":803,"x_min":0,"x_max":0,"o":"m 535 694 l 535 363 b 385 160 535 243 488 160 b 268 308 304 160 268 210 l 268 694 l 81 694 l 81 263 b 321 -17 81 92 160 -17 b 542 106 425 -17 494 35 l 542 0 l 719 0 l 719 694 z "},"ù":{"ha":803,"x_min":0,"x_max":0,"o":"m 535 694 l 535 363 b 385 160 535 243 488 160 b 268 308 304 160 268 210 l 268 694 l 81 694 l 81 263 b 321 -17 81 92 160 -17 b 542 106 425 -17 494 35 l 542 0 l 719 0 l 719 694 z "},"û":{"ha":803,"x_min":0,"x_max":0,"o":"m 535 694 l 535 363 b 385 160 535 243 488 160 b 268 308 304 160 268 210 l 268 694 l 81 694 l 81 263 b 321 -17 81 92 160 -17 b 542 106 425 -17 494 35 l 542 0 l 719 0 l 719 694 z "},"ü":{"ha":803,"x_min":0,"x_max":0,"o":"m 535 694 l 535 363 b 385 160 535 243 488 160 b 268 308 304 160 268 210 l 268 694 l 81 694 l 81 263 b 321 -17 81 92 160 -17 b 542 106 425 -17 494 35 l 542 0 l 719 0 l 719 694 z "},"ß":{"ha":1328,"x_min":0,"x_max":0,"o":"m 64 490 b 294 271 64 339 192 292 b 449 200 411 246 449 238 b 356 147 449 161 407 147 b 136 238 258 147 182 182 l 29 99 b 338 -17 90 21 204 -17 b 638 210 522 -17 638 51 b 415 428 638 356 536 401 b 254 497 292 454 254 463 b 343 546 254 528 286 546 b 531 475 417 546 492 518 l 633 608 b 357 711 572 671 483 711 b 64 490 175 711 64 631 z m 728 490 b 958 271 728 339 856 292 b 1113 200 1075 246 1113 238 b 1019 147 1113 161 1071 147 b 800 238 922 147 846 182 l 693 99 b 1001 -17 754 21 868 -17 b 1301 210 1186 -17 1301 51 b 1079 428 1301 356 1200 401 b 918 497 956 454 918 463 b 1007 546 918 528 950 546 b 1194 475 1081 546 1156 518 l 1297 608 b 1021 711 1236 671 1147 711 b 728 490 839 711 728 631 z "},"Æ":{"ha":1907,"x_min":0,"x_max":0,"o":"m 550 706 l 715 347 l 385 347 z m 876 0 l 1090 0 l 640 972 l 460 972 l 10 0 l 224 0 l 294 153 l 806 153 z m 1203 972 l 1203 0 l 1831 0 l 1831 194 l 1397 194 l 1397 389 l 1831 389 l 1831 583 l 1397 583 l 1397 778 l 1831 778 l 1831 972 z "},"Ø":{"ha":1076,"x_min":0,"x_max":0,"o":"m 53 486 b 539 0 53 208 261 0 b 1025 486 817 0 1025 208 b 539 972 1025 764 817 972 b 53 486 261 972 53 764 z m 831 486 b 539 194 831 317 708 194 b 247 486 368 194 247 317 b 539 778 247 657 368 778 b 831 486 708 778 831 657 z "},"æ":{"ha":1518,"x_min":0,"x_max":0,"o":"m 489 281 b 329 138 489 204 426 138 b 231 211 265 138 231 167 b 317 288 231 250 260 279 l 489 308 z m 58 553 l 194 456 b 368 544 221 522 296 544 b 489 475 450 544 489 515 l 489 464 b 453 436 489 447 479 439 l 263 419 b 40 201 135 407 40 328 b 275 -15 40 74 138 -15 b 489 93 383 -15 453 38 l 489 -1 l 672 -1 l 672 428 b 368 710 672 621 571 710 b 58 553 217 710 104 657 z m 785 347 b 1157 -17 785 140 922 -17 b 1433 75 1290 -17 1376 28 l 1357 226 b 1160 156 1308 185 1243 156 b 974 289 1079 156 996 196 l 972 292 l 1483 292 l 1483 342 b 1140 711 1483 565 1353 711 b 785 347 922 711 785 553 z m 1283 425 l 971 425 b 1135 556 989 508 1047 556 b 1283 425 1224 556 1275 500 z "},"ø":{"ha":822,"x_min":0,"x_max":0,"o":"m 38 347 b 411 -17 38 131 197 -17 b 785 347 625 -17 785 131 b 411 711 785 564 625 711 b 38 347 197 711 38 564 z m 596 347 b 411 163 596 236 515 163 b 226 347 307 163 226 236 b 411 532 226 458 307 532 b 596 347 515 532 596 458 z "},"À":{"ha":1100,"x_min":0,"x_max":0,"o":"m 550 706 l 715 347 l 385 347 z m 876 0 l 1090 0 l 640 972 l 460 972 l 10 0 l 224 0 l 294 153 l 806 153 z "},"Ã":{"ha":1100,"x_min":0,"x_max":0,"o":"m 550 706 l 715 347 l 385 347 z m 876 0 l 1090 0 l 640 972 l 460 972 l 10 0 l 224 0 l 294 153 l 806 153 z "},"Õ":{"ha":1076,"x_min":0,"x_max":0,"o":"m 53 486 b 539 0 53 208 261 0 b 1025 486 817 0 1025 208 b 539 972 1025 764 817 972 b 53 486 261 972 53 764 z m 831 486 b 539 194 831 317 708 194 b 247 486 368 194 247 317 b 539 778 247 657 368 778 b 831 486 708 778 831 657 z "},"Œ":{"ha":1883,"x_min":0,"x_max":0,"o":"m 53 486 b 539 0 53 208 261 0 b 1025 486 817 0 1025 208 b 539 972 1025 764 817 972 b 53 486 261 972 53 764 z m 831 486 b 539 194 831 317 708 194 b 247 486 368 194 247 317 b 539 778 247 657 368 778 b 831 486 708 778 831 657 z m 1179 972 l 1179 0 l 1807 0 l 1807 194 l 1374 194 l 1374 389 l 1807 389 l 1807 583 l 1374 583 l 1374 778 l 1807 778 l 1807 972 z "},"œ":{"ha":1593,"x_min":0,"x_max":0,"o":"m 38 347 b 411 -17 38 131 197 -17 b 785 347 625 -17 785 131 b 411 711 785 564 625 711 b 38 347 197 711 38 564 z m 596 347 b 411 163 596 236 515 163 b 226 347 307 163 226 236 b 411 532 226 458 307 532 b 596 347 515 532 596 458 z m 860 347 b 1232 -17 860 140 997 -17 b 1508 75 1365 -17 1451 28 l 1432 226 b 1235 156 1383 185 1318 156 b 1049 289 1154 156 1071 196 l 1047 292 l 1558 292 l 1558 342 b 1215 711 1558 565 1428 711 b 860 347 997 711 860 553 z m 1358 425 l 1046 425 b 1210 556 1064 508 1122 556 b 1358 425 1299 556 1350 500 z "},"–":{"ha":869,"x_min":0,"x_max":0,"o":"m 111 514 l 111 319 l 758 319 l 758 514 z "},"—":{"ha":869,"x_min":0,"x_max":0,"o":"m 111 514 l 111 319 l 758 319 l 758 514 z "},"ÿ":{"ha":747,"x_min":0,"x_max":0,"o":"m 315 -278 l 753 694 l 558 694 l 388 314 l 210 694 l -4 694 l 290 100 l 121 -278 z "},"Ÿ":{"ha":986,"x_min":0,"x_max":0,"o":"m 590 0 l 590 376 l 988 972 l 753 972 l 493 583 l 233 972 l -1 972 l 396 376 l 396 0 z "},"ﬁ":{"ha":925,"x_min":0,"x_max":0,"o":"m 533 540 l 533 694 l 336 694 l 336 710 b 435 817 336 782 361 817 b 540 806 467 817 497 813 l 540 975 b 404 988 494 982 456 988 b 153 729 261 988 153 910 l 153 694 l 13 694 l 13 540 l 153 540 l 153 0 l 336 0 l 336 540 z m 626 893 b 743 776 626 826 676 776 b 861 893 810 776 861 826 b 743 1011 861 960 810 1011 b 626 893 676 1011 626 960 z m 651 694 l 651 0 l 835 0 l 835 694 z "},"Â":{"ha":1100,"x_min":0,"x_max":0,"o":"m 550 706 l 715 347 l 385 347 z m 876 0 l 1090 0 l 640 972 l 460 972 l 10 0 l 224 0 l 294 153 l 806 153 z "},"Ê":{"ha":807,"x_min":0,"x_max":0,"o":"m 103 972 l 103 0 l 731 0 l 731 194 l 297 194 l 297 389 l 731 389 l 731 583 l 297 583 l 297 778 l 731 778 l 731 972 z "},"Á":{"ha":1100,"x_min":0,"x_max":0,"o":"m 550 706 l 715 347 l 385 347 z m 876 0 l 1090 0 l 640 972 l 460 972 l 10 0 l 224 0 l 294 153 l 806 153 z "},"Ë":{"ha":807,"x_min":0,"x_max":0,"o":"m 103 972 l 103 0 l 731 0 l 731 194 l 297 194 l 297 389 l 731 389 l 731 583 l 297 583 l 297 778 l 731 778 l 731 972 z "},"È":{"ha":807,"x_min":0,"x_max":0,"o":"m 103 972 l 103 0 l 731 0 l 731 194 l 297 194 l 297 389 l 731 389 l 731 583 l 297 583 l 297 778 l 731 778 l 731 972 z "},"Í":{"ha":400,"x_min":0,"x_max":0,"o":"m 103 972 l 103 0 l 297 0 l 297 972 z "},"Î":{"ha":400,"x_min":0,"x_max":0,"o":"m 103 972 l 103 0 l 297 0 l 297 972 z "},"Ï":{"ha":400,"x_min":0,"x_max":0,"o":"m 103 972 l 103 0 l 297 0 l 297 972 z "},"Ì":{"ha":400,"x_min":0,"x_max":0,"o":"m 103 972 l 103 0 l 297 0 l 297 972 z "},"Ó":{"ha":1076,"x_min":0,"x_max":0,"o":"m 53 486 b 539 0 53 208 261 0 b 1025 486 817 0 1025 208 b 539 972 1025 764 817 972 b 53 486 261 972 53 764 z m 831 486 b 539 194 831 317 708 194 b 247 486 368 194 247 317 b 539 778 247 657 368 778 b 831 486 708 778 831 657 z "},"Ô":{"ha":1076,"x_min":0,"x_max":0,"o":"m 53 486 b 539 0 53 208 261 0 b 1025 486 817 0 1025 208 b 539 972 1025 764 817 972 b 53 486 261 972 53 764 z m 831 486 b 539 194 831 317 708 194 b 247 486 368 194 247 317 b 539 778 247 657 368 778 b 831 486 708 778 831 657 z "},"Ò":{"ha":1076,"x_min":0,"x_max":0,"o":"m 53 486 b 539 0 53 208 261 0 b 1025 486 817 0 1025 208 b 539 972 1025 764 817 972 b 53 486 261 972 53 764 z m 831 486 b 539 194 831 317 708 194 b 247 486 368 194 247 317 b 539 778 247 657 368 778 b 831 486 708 778 831 657 z "},"Ú":{"ha":1065,"x_min":0,"x_max":0,"o":"m 790 972 l 790 450 b 533 194 790 292 681 194 b 275 450 386 194 275 292 l 275 972 l 81 972 l 81 450 b 533 0 81 183 275 0 b 985 450 792 0 985 183 l 985 972 z "},"Û":{"ha":1065,"x_min":0,"x_max":0,"o":"m 790 972 l 790 450 b 533 194 790 292 681 194 b 275 450 386 194 275 292 l 275 972 l 81 972 l 81 450 b 533 0 81 183 275 0 b 985 450 792 0 985 183 l 985 972 z "},"Ù":{"ha":1065,"x_min":0,"x_max":0,"o":"m 790 972 l 790 450 b 533 194 790 292 681 194 b 275 450 386 194 275 292 l 275 972 l 81 972 l 81 450 b 533 0 81 183 275 0 b 985 450 792 0 985 183 l 985 972 z "},"ı":{"ha":364,"x_min":0,"x_max":0,"o":"m 65 893 b 182 776 65 826 115 776 b 300 893 249 776 300 826 b 182 1011 300 960 249 1011 b 65 893 115 1011 65 960 z m 90 694 l 90 0 l 274 0 l 274 694 z "},"Ā":{"ha":1100,"x_min":0,"x_max":0,"o":"m 550 706 l 715 347 l 385 347 z m 876 0 l 1090 0 l 640 972 l 460 972 l 10 0 l 224 0 l 294 153 l 806 153 z "},"Ă":{"ha":1100,"x_min":0,"x_max":0,"o":"m 550 706 l 715 347 l 385 347 z m 876 0 l 1090 0 l 640 972 l 460 972 l 10 0 l 224 0 l 294 153 l 806 153 z "},"Ą":{"ha":1100,"x_min":0,"x_max":0,"o":"m 550 706 l 715 347 l 385 347 z m 876 0 l 1090 0 l 640 972 l 460 972 l 10 0 l 224 0 l 294 153 l 806 153 z "},"Ǽ":{"ha":1907,"x_min":0,"x_max":0,"o":"m 550 706 l 715 347 l 385 347 z m 876 0 l 1090 0 l 640 972 l 460 972 l 10 0 l 224 0 l 294 153 l 806 153 z m 1203 972 l 1203 0 l 1831 0 l 1831 194 l 1397 194 l 1397 389 l 1831 389 l 1831 583 l 1397 583 l 1397 778 l 1831 778 l 1831 972 z "},"Ć":{"ha":903,"x_min":0,"x_max":0,"o":"m 53 488 b 536 0 53 210 264 0 b 767 50 618 0 690 18 l 725 240 b 536 194 654 204 588 194 b 247 486 369 194 247 314 b 538 778 247 658 369 778 b 797 660 636 778 725 736 l 890 839 b 538 972 796 926 668 972 b 53 488 263 972 53 764 z "},"Ĉ":{"ha":903,"x_min":0,"x_max":0,"o":"m 53 488 b 536 0 53 210 264 0 b 767 50 618 0 690 18 l 725 240 b 536 194 654 204 588 194 b 247 486 369 194 247 314 b 538 778 247 658 369 778 b 797 660 636 778 725 736 l 890 839 b 538 972 796 926 668 972 b 53 488 263 972 53 764 z "},"Č":{"ha":903,"x_min":0,"x_max":0,"o":"m 53 488 b 536 0 53 210 264 0 b 767 50 618 0 690 18 l 725 240 b 536 194 654 204 588 194 b 247 486 369 194 247 314 b 538 778 247 658 369 778 b 797 660 636 778 725 736 l 890 839 b 538 972 796 926 668 972 b 53 488 263 972 53 764 z "},"Ċ":{"ha":903,"x_min":0,"x_max":0,"o":"m 53 488 b 536 0 53 210 264 0 b 767 50 618 0 690 18 l 725 240 b 536 194 654 204 588 194 b 247 486 369 194 247 314 b 538 778 247 658 369 778 b 797 660 636 778 725 736 l 890 839 b 538 972 796 926 668 972 b 53 488 263 972 53 764 z "},"Ď":{"ha":983,"x_min":0,"x_max":0,"o":"m 103 972 l 103 0 l 456 0 b 932 486 731 0 932 206 b 456 972 932 767 731 972 z m 738 486 b 456 194 738 318 622 194 l 297 194 l 297 778 l 456 778 b 738 486 622 778 738 654 z "},"Đ":{"ha":983,"x_min":0,"x_max":0,"o":"m 103 972 l 103 0 l 456 0 b 932 486 731 0 932 206 b 456 972 932 767 731 972 z m 738 486 b 456 194 738 318 622 194 l 297 194 l 297 778 l 456 778 b 738 486 622 778 738 654 z "},"Ě":{"ha":807,"x_min":0,"x_max":0,"o":"m 103 972 l 103 0 l 731 0 l 731 194 l 297 194 l 297 389 l 731 389 l 731 583 l 297 583 l 297 778 l 731 778 l 731 972 z "},"Ē":{"ha":807,"x_min":0,"x_max":0,"o":"m 103 972 l 103 0 l 731 0 l 731 194 l 297 194 l 297 389 l 731 389 l 731 583 l 297 583 l 297 778 l 731 778 l 731 972 z "},"Ĕ":{"ha":807,"x_min":0,"x_max":0,"o":"m 103 972 l 103 0 l 731 0 l 731 194 l 297 194 l 297 389 l 731 389 l 731 583 l 297 583 l 297 778 l 731 778 l 731 972 z "},"Ė":{"ha":807,"x_min":0,"x_max":0,"o":"m 103 972 l 103 0 l 731 0 l 731 194 l 297 194 l 297 389 l 731 389 l 731 583 l 297 583 l 297 778 l 731 778 l 731 972 z "},"Ę":{"ha":807,"x_min":0,"x_max":0,"o":"m 103 972 l 103 0 l 731 0 l 731 194 l 297 194 l 297 389 l 731 389 l 731 583 l 297 583 l 297 778 l 731 778 l 731 972 z "},"Ĝ":{"ha":907,"x_min":0,"x_max":0,"o":"m 53 485 b 540 0 53 204 256 0 b 774 39 624 0 697 15 l 774 551 l 397 551 l 397 357 l 579 357 l 579 199 b 540 194 567 196 556 194 b 247 486 365 194 247 314 b 539 778 247 658 367 778 b 797 660 639 778 725 736 l 890 839 b 543 972 796 926 672 972 b 53 485 254 972 53 765 z "},"Ğ":{"ha":907,"x_min":0,"x_max":0,"o":"m 53 485 b 540 0 53 204 256 0 b 774 39 624 0 697 15 l 774 551 l 397 551 l 397 357 l 579 357 l 579 199 b 540 194 567 196 556 194 b 247 486 365 194 247 314 b 539 778 247 658 367 778 b 797 660 639 778 725 736 l 890 839 b 543 972 796 926 672 972 b 53 485 254 972 53 765 z "},"Ġ":{"ha":907,"x_min":0,"x_max":0,"o":"m 53 485 b 540 0 53 204 256 0 b 774 39 624 0 697 15 l 774 551 l 397 551 l 397 357 l 579 357 l 579 199 b 540 194 567 196 556 194 b 247 486 365 194 247 314 b 539 778 247 658 367 778 b 797 660 639 778 725 736 l 890 839 b 543 972 796 926 672 972 b 53 485 254 972 53 765 z "},"Ģ":{"ha":907,"x_min":0,"x_max":0,"o":"m 53 485 b 540 0 53 204 256 0 b 774 39 624 0 697 15 l 774 551 l 397 551 l 397 357 l 579 357 l 579 199 b 540 194 567 196 556 194 b 247 486 365 194 247 314 b 539 778 247 658 367 778 b 797 660 639 778 725 736 l 890 839 b 543 972 796 926 672 972 b 53 485 254 972 53 765 z "},"Ĥ":{"ha":1019,"x_min":0,"x_max":0,"o":"m 724 972 l 724 583 l 297 583 l 297 972 l 103 972 l 103 0 l 297 0 l 297 389 l 724 389 l 724 0 l 918 0 l 918 972 z "},"Ħ":{"ha":1019,"x_min":0,"x_max":0,"o":"m 724 972 l 724 583 l 297 583 l 297 972 l 103 972 l 103 0 l 297 0 l 297 389 l 724 389 l 724 0 l 918 0 l 918 972 z "},"Ĩ":{"ha":400,"x_min":0,"x_max":0,"o":"m 103 972 l 103 0 l 297 0 l 297 972 z "},"Ī":{"ha":400,"x_min":0,"x_max":0,"o":"m 103 972 l 103 0 l 297 0 l 297 972 z "},"Ĭ":{"ha":400,"x_min":0,"x_max":0,"o":"m 103 972 l 103 0 l 297 0 l 297 972 z "},"İ":{"ha":400,"x_min":0,"x_max":0,"o":"m 103 972 l 103 0 l 297 0 l 297 972 z "},"Į":{"ha":400,"x_min":0,"x_max":0,"o":"m 103 972 l 103 0 l 297 0 l 297 972 z "},"Ĳ":{"ha":1124,"x_min":0,"x_max":0,"o":"m 103 972 l 103 0 l 297 0 l 297 972 z m 842 972 l 842 336 b 724 194 842 244 801 194 b 589 381 631 194 589 267 l 413 301 b 722 0 413 144 519 0 b 1036 335 899 0 1036 111 l 1036 972 z "},"Ĵ":{"ha":724,"x_min":0,"x_max":0,"o":"m 442 972 l 442 336 b 324 194 442 244 401 194 b 189 381 231 194 189 267 l 13 301 b 322 0 13 144 119 0 b 636 335 499 0 636 111 l 636 972 z "},"Ķ":{"ha":979,"x_min":0,"x_max":0,"o":"m 733 0 l 981 0 l 557 547 l 979 972 l 706 972 l 297 563 l 297 972 l 103 972 l 103 0 l 297 0 l 297 286 l 419 408 z "},"Ĺ":{"ha":751,"x_min":0,"x_max":0,"o":"m 103 972 l 103 0 l 739 0 l 739 194 l 297 194 l 297 972 z "},"Ľ":{"ha":751,"x_min":0,"x_max":0,"o":"m 103 972 l 103 0 l 739 0 l 739 194 l 297 194 l 297 972 z "},"Ļ":{"ha":751,"x_min":0,"x_max":0,"o":"m 103 972 l 103 0 l 739 0 l 739 194 l 297 194 l 297 972 z "},"Ŀ":{"ha":751,"x_min":0,"x_max":0,"o":"m 103 972 l 103 0 l 739 0 l 739 194 l 297 194 l 297 972 z "},"Ń":{"ha":1083,"x_min":0,"x_max":0,"o":"m 792 972 l 792 333 l 267 972 l 97 972 l 97 0 l 292 0 l 292 639 l 817 0 l 986 0 l 986 972 z "},"Ň":{"ha":1083,"x_min":0,"x_max":0,"o":"m 792 972 l 792 333 l 267 972 l 97 972 l 97 0 l 292 0 l 292 639 l 817 0 l 986 0 l 986 972 z "},"Ņ":{"ha":1083,"x_min":0,"x_max":0,"o":"m 792 972 l 792 333 l 267 972 l 97 972 l 97 0 l 292 0 l 292 639 l 817 0 l 986 0 l 986 972 z "},"Ō":{"ha":1076,"x_min":0,"x_max":0,"o":"m 53 486 b 539 0 53 208 261 0 b 1025 486 817 0 1025 208 b 539 972 1025 764 817 972 b 53 486 261 972 53 764 z m 831 486 b 539 194 831 317 708 194 b 247 486 368 194 247 317 b 539 778 247 657 368 778 b 831 486 708 778 831 657 z "},"Ŏ":{"ha":1076,"x_min":0,"x_max":0,"o":"m 53 486 b 539 0 53 208 261 0 b 1025 486 817 0 1025 208 b 539 972 1025 764 817 972 b 53 486 261 972 53 764 z m 831 486 b 539 194 831 317 708 194 b 247 486 368 194 247 317 b 539 778 247 657 368 778 b 831 486 708 778 831 657 z "},"Ő":{"ha":1076,"x_min":0,"x_max":0,"o":"m 53 486 b 539 0 53 208 261 0 b 1025 486 817 0 1025 208 b 539 972 1025 764 817 972 b 53 486 261 972 53 764 z m 831 486 b 539 194 831 317 708 194 b 247 486 368 194 247 317 b 539 778 247 657 368 778 b 831 486 708 778 831 657 z "},"Ǿ":{"ha":1076,"x_min":0,"x_max":0,"o":"m 53 486 b 539 0 53 208 261 0 b 1025 486 817 0 1025 208 b 539 972 1025 764 817 972 b 53 486 261 972 53 764 z m 831 486 b 539 194 831 317 708 194 b 247 486 368 194 247 317 b 539 778 247 657 368 778 b 831 486 708 778 831 657 z "},"Ŕ":{"ha":954,"x_min":0,"x_max":0,"o":"m 704 -1 l 933 0 l 717 344 b 871 633 811 403 871 508 b 528 972 871 828 728 972 l 103 972 l 103 0 l 297 0 l 297 293 l 521 293 z m 297 488 l 297 778 l 528 778 b 676 633 621 778 676 717 b 613 510 676 579 654 535 l 536 632 l 369 535 l 399 488 z "},"Ř":{"ha":954,"x_min":0,"x_max":0,"o":"m 704 -1 l 933 0 l 717 344 b 871 633 811 403 871 508 b 528 972 871 828 728 972 l 103 972 l 103 0 l 297 0 l 297 293 l 521 293 z m 297 488 l 297 778 l 528 778 b 676 633 621 778 676 717 b 613 510 676 579 654 535 l 536 632 l 369 535 l 399 488 z "},"Ŗ":{"ha":954,"x_min":0,"x_max":0,"o":"m 704 -1 l 933 0 l 717 344 b 871 633 811 403 871 508 b 528 972 871 828 728 972 l 103 972 l 103 0 l 297 0 l 297 293 l 521 293 z m 297 488 l 297 778 l 528 778 b 676 633 621 778 676 717 b 613 510 676 579 654 535 l 536 632 l 369 535 l 399 488 z "},"Ś":{"ha":768,"x_min":0,"x_max":0,"o":"m 71 693 b 332 403 71 507 210 442 b 504 282 428 374 504 354 b 386 194 504 228 461 194 b 233 321 303 194 253 235 l 60 246 b 385 0 97 72 235 0 b 699 282 563 0 699 100 b 443 569 699 463 575 526 b 265 692 340 603 265 622 b 383 778 265 740 304 778 b 532 656 460 778 513 743 l 708 726 b 385 972 674 886 549 972 b 71 693 206 972 71 869 z "},"Ŝ":{"ha":768,"x_min":0,"x_max":0,"o":"m 71 693 b 332 403 71 507 210 442 b 504 282 428 374 504 354 b 386 194 504 228 461 194 b 233 321 303 194 253 235 l 60 246 b 385 0 97 72 235 0 b 699 282 563 0 699 100 b 443 569 699 463 575 526 b 265 692 340 603 265 622 b 383 778 265 740 304 778 b 532 656 460 778 513 743 l 708 726 b 385 972 674 886 549 972 b 71 693 206 972 71 869 z "},"Ş":{"ha":768,"x_min":0,"x_max":0,"o":"m 71 693 b 332 403 71 507 210 442 b 504 282 428 374 504 354 b 386 194 504 228 461 194 b 233 321 303 194 253 235 l 60 246 b 385 0 97 72 235 0 b 699 282 563 0 699 100 b 443 569 699 463 575 526 b 265 692 340 603 265 622 b 383 778 265 740 304 778 b 532 656 460 778 513 743 l 708 726 b 385 972 674 886 549 972 b 71 693 206 972 71 869 z "},"Ș":{"ha":768,"x_min":0,"x_max":0,"o":"m 71 693 b 332 403 71 507 210 442 b 504 282 428 374 504 354 b 386 194 504 228 461 194 b 233 321 303 194 253 235 l 60 246 b 385 0 97 72 235 0 b 699 282 563 0 699 100 b 443 569 699 463 575 526 b 265 692 340 603 265 622 b 383 778 265 740 304 778 b 532 656 460 778 513 743 l 708 726 b 385 972 674 886 549 972 b 71 693 206 972 71 869 z "},"Ť":{"ha":911,"x_min":0,"x_max":0,"o":"m 904 778 l 904 972 l 7 972 l 7 778 l 358 778 l 358 0 l 553 0 l 553 778 z "},"Ţ":{"ha":911,"x_min":0,"x_max":0,"o":"m 904 778 l 904 972 l 7 972 l 7 778 l 358 778 l 358 0 l 553 0 l 553 778 z "},"Ŧ":{"ha":911,"x_min":0,"x_max":0,"o":"m 904 778 l 904 972 l 7 972 l 7 778 l 358 778 l 358 0 l 553 0 l 553 778 z "},"Ț":{"ha":911,"x_min":0,"x_max":0,"o":"m 904 778 l 904 972 l 7 972 l 7 778 l 358 778 l 358 0 l 553 0 l 553 778 z "},"Ũ":{"ha":1065,"x_min":0,"x_max":0,"o":"m 790 972 l 790 450 b 533 194 790 292 681 194 b 275 450 386 194 275 292 l 275 972 l 81 972 l 81 450 b 533 0 81 183 275 0 b 985 450 792 0 985 183 l 985 972 z "},"Ū":{"ha":1065,"x_min":0,"x_max":0,"o":"m 790 972 l 790 450 b 533 194 790 292 681 194 b 275 450 386 194 275 292 l 275 972 l 81 972 l 81 450 b 533 0 81 183 275 0 b 985 450 792 0 985 183 l 985 972 z "},"Ŭ":{"ha":1065,"x_min":0,"x_max":0,"o":"m 790 972 l 790 450 b 533 194 790 292 681 194 b 275 450 386 194 275 292 l 275 972 l 81 972 l 81 450 b 533 0 81 183 275 0 b 985 450 792 0 985 183 l 985 972 z "},"Ů":{"ha":1065,"x_min":0,"x_max":0,"o":"m 790 972 l 790 450 b 533 194 790 292 681 194 b 275 450 386 194 275 292 l 275 972 l 81 972 l 81 450 b 533 0 81 183 275 0 b 985 450 792 0 985 183 l 985 972 z "},"Ű":{"ha":1065,"x_min":0,"x_max":0,"o":"m 790 972 l 790 450 b 533 194 790 292 681 194 b 275 450 386 194 275 292 l 275 972 l 81 972 l 81 450 b 533 0 81 183 275 0 b 985 450 792 0 985 183 l 985 972 z "},"Ų":{"ha":1065,"x_min":0,"x_max":0,"o":"m 790 972 l 790 450 b 533 194 790 292 681 194 b 275 450 386 194 275 292 l 275 972 l 81 972 l 81 450 b 533 0 81 183 275 0 b 985 450 792 0 985 183 l 985 972 z "},"Ẁ":{"ha":1722,"x_min":0,"x_max":0,"o":"m 572 0 l 861 693 l 1150 0 l 1332 0 l 1708 972 l 1500 972 l 1238 294 l 957 972 l 765 972 l 485 294 l 222 972 l 14 972 l 390 0 z "},"Ẃ":{"ha":1722,"x_min":0,"x_max":0,"o":"m 572 0 l 861 693 l 1150 0 l 1332 0 l 1708 972 l 1500 972 l 1238 294 l 957 972 l 765 972 l 485 294 l 222 972 l 14 972 l 390 0 z "},"Ŵ":{"ha":1722,"x_min":0,"x_max":0,"o":"m 572 0 l 861 693 l 1150 0 l 1332 0 l 1708 972 l 1500 972 l 1238 294 l 957 972 l 765 972 l 485 294 l 222 972 l 14 972 l 390 0 z "},"Ẅ":{"ha":1722,"x_min":0,"x_max":0,"o":"m 572 0 l 861 693 l 1150 0 l 1332 0 l 1708 972 l 1500 972 l 1238 294 l 957 972 l 765 972 l 485 294 l 222 972 l 14 972 l 390 0 z "},"Ỳ":{"ha":986,"x_min":0,"x_max":0,"o":"m 590 0 l 590 376 l 988 972 l 753 972 l 493 583 l 233 972 l -1 972 l 396 376 l 396 0 z "},"Ŷ":{"ha":986,"x_min":0,"x_max":0,"o":"m 590 0 l 590 376 l 988 972 l 753 972 l 493 583 l 233 972 l -1 972 l 396 376 l 396 0 z "},"Ź":{"ha":924,"x_min":0,"x_max":0,"o":"m 65 972 l 65 778 l 568 778 l 65 140 l 65 0 l 858 0 l 858 194 l 356 194 l 858 832 l 858 972 z "},"Ż":{"ha":924,"x_min":0,"x_max":0,"o":"m 65 972 l 65 778 l 568 778 l 65 140 l 65 0 l 858 0 l 858 194 l 356 194 l 858 832 l 858 972 z "},"Ŋ":{"ha":1083,"x_min":0,"x_max":0,"o":"m 792 972 l 792 333 l 267 972 l 97 972 l 97 0 l 292 0 l 292 639 l 817 0 l 986 0 l 986 972 z "},"ā":{"ha":747,"x_min":0,"x_max":0,"o":"m 489 281 b 329 138 489 204 426 138 b 231 211 265 138 231 167 b 317 288 231 250 260 279 l 489 308 z m 58 553 l 194 456 b 368 544 221 522 296 544 b 489 475 450 544 489 515 l 489 464 b 453 436 489 447 479 439 l 263 419 b 40 201 135 407 40 328 b 275 -15 40 74 138 -15 b 489 93 383 -15 453 38 l 489 -1 l 672 -1 l 672 428 b 368 710 672 621 571 710 b 58 553 217 710 104 657 z "},"ă":{"ha":747,"x_min":0,"x_max":0,"o":"m 489 281 b 329 138 489 204 426 138 b 231 211 265 138 231 167 b 317 288 231 250 260 279 l 489 308 z m 58 553 l 194 456 b 368 544 221 522 296 544 b 489 475 450 544 489 515 l 489 464 b 453 436 489 447 479 439 l 263 419 b 40 201 135 407 40 328 b 275 -15 40 74 138 -15 b 489 93 383 -15 453 38 l 489 -1 l 672 -1 l 672 428 b 368 710 672 621 571 710 b 58 553 217 710 104 657 z "},"ą":{"ha":747,"x_min":0,"x_max":0,"o":"m 489 281 b 329 138 489 204 426 138 b 231 211 265 138 231 167 b 317 288 231 250 260 279 l 489 308 z m 58 553 l 194 456 b 368 544 221 522 296 544 b 489 475 450 544 489 515 l 489 464 b 453 436 489 447 479 439 l 263 419 b 40 201 135 407 40 328 b 275 -15 40 74 138 -15 b 489 93 383 -15 453 38 l 489 -1 l 672 -1 l 672 428 b 368 710 672 621 571 710 b 58 553 217 710 104 657 z "},"ǽ":{"ha":1518,"x_min":0,"x_max":0,"o":"m 489 281 b 329 138 489 204 426 138 b 231 211 265 138 231 167 b 317 288 231 250 260 279 l 489 308 z m 58 553 l 194 456 b 368 544 221 522 296 544 b 489 475 450 544 489 515 l 489 464 b 453 436 489 447 479 439 l 263 419 b 40 201 135 407 40 328 b 275 -15 40 74 138 -15 b 489 93 383 -15 453 38 l 489 -1 l 672 -1 l 672 428 b 368 710 672 621 571 710 b 58 553 217 710 104 657 z m 785 347 b 1157 -17 785 140 922 -17 b 1433 75 1290 -17 1376 28 l 1357 226 b 1160 156 1308 185 1243 156 b 974 289 1079 156 996 196 l 972 292 l 1483 292 l 1483 342 b 1140 711 1483 565 1353 711 b 785 347 922 711 785 553 z m 1283 425 l 971 425 b 1135 556 989 508 1047 556 b 1283 425 1224 556 1275 500 z "},"ć":{"ha":697,"x_min":0,"x_max":0,"o":"m 38 347 b 406 -17 38 126 193 -17 b 674 86 522 -17 614 26 l 572 233 b 408 163 533 194 479 163 b 226 347 306 163 226 236 b 408 532 226 458 304 532 b 568 463 478 532 529 501 l 672 610 b 408 711 610 672 519 711 b 38 347 194 711 38 567 z "},"ĉ":{"ha":697,"x_min":0,"x_max":0,"o":"m 38 347 b 406 -17 38 126 193 -17 b 674 86 522 -17 614 26 l 572 233 b 408 163 533 194 479 163 b 226 347 306 163 226 236 b 408 532 226 458 304 532 b 568 463 478 532 529 501 l 672 610 b 408 711 610 672 519 711 b 38 347 194 711 38 567 z "},"č":{"ha":697,"x_min":0,"x_max":0,"o":"m 38 347 b 406 -17 38 126 193 -17 b 674 86 522 -17 614 26 l 572 233 b 408 163 533 194 479 163 b 226 347 306 163 226 236 b 408 532 226 458 304 532 b 568 463 478 532 529 501 l 672 610 b 408 711 610 672 519 711 b 38 347 194 711 38 567 z "},"ċ":{"ha":697,"x_min":0,"x_max":0,"o":"m 38 347 b 406 -17 38 126 193 -17 b 674 86 522 -17 614 26 l 572 233 b 408 163 533 194 479 163 b 226 347 306 163 226 236 b 408 532 226 458 304 532 b 568 463 478 532 529 501 l 672 610 b 408 711 610 672 519 711 b 38 347 194 711 38 567 z "},"ď":{"ha":849,"x_min":0,"x_max":0,"o":"m 408 533 b 590 347 511 533 590 463 b 408 161 590 233 511 161 b 226 347 304 161 226 235 b 408 533 226 460 304 533 z m 585 972 l 585 594 b 351 713 538 661 460 713 b 38 347 182 713 38 582 b 354 -18 38 113 182 -18 b 585 97 456 -18 535 26 l 585 0 l 768 0 l 768 972 z "},"đ":{"ha":849,"x_min":0,"x_max":0,"o":"m 408 533 b 590 347 511 533 590 463 b 408 161 590 233 511 161 b 226 347 304 161 226 235 b 408 533 226 460 304 533 z m 585 972 l 585 594 b 351 713 538 661 460 713 b 38 347 182 713 38 582 b 354 -18 38 113 182 -18 b 585 97 456 -18 535 26 l 585 0 l 768 0 l 768 972 z "},"ě":{"ha":771,"x_min":0,"x_max":0,"o":"m 38 347 b 410 -17 38 140 175 -17 b 686 75 543 -17 629 28 l 610 226 b 413 156 561 185 496 156 b 226 289 332 156 249 196 l 225 292 l 736 292 l 736 342 b 393 711 736 565 606 711 b 38 347 175 711 38 553 z m 536 425 l 224 425 b 388 556 242 508 300 556 b 536 425 476 556 528 500 z "},"ē":{"ha":771,"x_min":0,"x_max":0,"o":"m 38 347 b 410 -17 38 140 175 -17 b 686 75 543 -17 629 28 l 610 226 b 413 156 561 185 496 156 b 226 289 332 156 249 196 l 225 292 l 736 292 l 736 342 b 393 711 736 565 606 711 b 38 347 175 711 38 553 z m 536 425 l 224 425 b 388 556 242 508 300 556 b 536 425 476 556 528 500 z "},"ĕ":{"ha":771,"x_min":0,"x_max":0,"o":"m 38 347 b 410 -17 38 140 175 -17 b 686 75 543 -17 629 28 l 610 226 b 413 156 561 185 496 156 b 226 289 332 156 249 196 l 225 292 l 736 292 l 736 342 b 393 711 736 565 606 711 b 38 347 175 711 38 553 z m 536 425 l 224 425 b 388 556 242 508 300 556 b 536 425 476 556 528 500 z "},"ė":{"ha":771,"x_min":0,"x_max":0,"o":"m 38 347 b 410 -17 38 140 175 -17 b 686 75 543 -17 629 28 l 610 226 b 413 156 561 185 496 156 b 226 289 332 156 249 196 l 225 292 l 736 292 l 736 342 b 393 711 736 565 606 711 b 38 347 175 711 38 553 z m 536 425 l 224 425 b 388 556 242 508 300 556 b 536 425 476 556 528 500 z "},"ę":{"ha":771,"x_min":0,"x_max":0,"o":"m 38 347 b 410 -17 38 140 175 -17 b 686 75 543 -17 629 28 l 610 226 b 413 156 561 185 496 156 b 226 289 332 156 249 196 l 225 292 l 736 292 l 736 342 b 393 711 736 565 606 711 b 38 347 175 711 38 553 z m 536 425 l 224 425 b 388 556 242 508 300 556 b 536 425 476 556 528 500 z "},"ĝ":{"ha":857,"x_min":0,"x_max":0,"o":"m 594 347 b 414 161 594 233 518 161 b 232 347 310 161 232 235 b 414 533 232 460 310 533 b 594 347 518 533 594 463 z m 43 350 b 369 -7 43 119 185 -7 b 593 100 469 -7 547 35 l 593 56 b 389 -124 593 -44 544 -124 b 179 -36 304 -124 238 -93 l 89 -187 b 396 -296 161 -254 256 -296 b 774 46 688 -296 774 -133 l 774 694 l 590 694 l 590 597 b 364 711 551 660 471 711 b 43 350 192 711 43 582 z "},"ğ":{"ha":857,"x_min":0,"x_max":0,"o":"m 594 347 b 414 161 594 233 518 161 b 232 347 310 161 232 235 b 414 533 232 460 310 533 b 594 347 518 533 594 463 z m 43 350 b 369 -7 43 119 185 -7 b 593 100 469 -7 547 35 l 593 56 b 389 -124 593 -44 544 -124 b 179 -36 304 -124 238 -93 l 89 -187 b 396 -296 161 -254 256 -296 b 774 46 688 -296 774 -133 l 774 694 l 590 694 l 590 597 b 364 711 551 660 471 711 b 43 350 192 711 43 582 z "},"ġ":{"ha":857,"x_min":0,"x_max":0,"o":"m 594 347 b 414 161 594 233 518 161 b 232 347 310 161 232 235 b 414 533 232 460 310 533 b 594 347 518 533 594 463 z m 43 350 b 369 -7 43 119 185 -7 b 593 100 469 -7 547 35 l 593 56 b 389 -124 593 -44 544 -124 b 179 -36 304 -124 238 -93 l 89 -187 b 396 -296 161 -254 256 -296 b 774 46 688 -296 774 -133 l 774 694 l 590 694 l 590 597 b 364 711 551 660 471 711 b 43 350 192 711 43 582 z "},"ģ":{"ha":857,"x_min":0,"x_max":0,"o":"m 594 347 b 414 161 594 233 518 161 b 232 347 310 161 232 235 b 414 533 232 460 310 533 b 594 347 518 533 594 463 z m 43 350 b 369 -7 43 119 185 -7 b 593 100 469 -7 547 35 l 593 56 b 389 -124 593 -44 544 -124 b 179 -36 304 -124 238 -93 l 89 -187 b 396 -296 161 -254 256 -296 b 774 46 688 -296 774 -133 l 774 694 l 590 694 l 590 597 b 364 711 551 660 471 711 b 43 350 192 711 43 582 z "},"ĥ":{"ha":807,"x_min":0,"x_max":0,"o":"m 81 972 l 81 0 l 264 0 l 264 332 b 415 535 264 456 310 535 b 542 385 496 535 542 485 l 542 0 l 729 0 l 729 431 b 483 711 729 606 646 711 b 264 594 381 711 310 665 l 264 972 z "},"ħ":{"ha":807,"x_min":0,"x_max":0,"o":"m 81 972 l 81 0 l 264 0 l 264 332 b 415 535 264 456 310 535 b 542 385 496 535 542 485 l 542 0 l 729 0 l 729 431 b 483 711 729 606 646 711 b 264 594 381 711 310 665 l 264 972 z "},"ĩ":{"ha":364,"x_min":0,"x_max":0,"o":"m 65 893 b 182 776 65 826 115 776 b 300 893 249 776 300 826 b 182 1011 300 960 249 1011 b 65 893 115 1011 65 960 z m 90 694 l 90 0 l 274 0 l 274 694 z "},"ī":{"ha":364,"x_min":0,"x_max":0,"o":"m 65 893 b 182 776 65 826 115 776 b 300 893 249 776 300 826 b 182 1011 300 960 249 1011 b 65 893 115 1011 65 960 z m 90 694 l 90 0 l 274 0 l 274 694 z "},"ĭ":{"ha":364,"x_min":0,"x_max":0,"o":"m 65 893 b 182 776 65 826 115 776 b 300 893 249 776 300 826 b 182 1011 300 960 249 1011 b 65 893 115 1011 65 960 z m 90 694 l 90 0 l 274 0 l 274 694 z "},"į":{"ha":364,"x_min":0,"x_max":0,"o":"m 65 893 b 182 776 65 826 115 776 b 300 893 249 776 300 826 b 182 1011 300 960 249 1011 b 65 893 115 1011 65 960 z m 90 694 l 90 0 l 274 0 l 274 694 z "},"ĳ":{"ha":749,"x_min":0,"x_max":0,"o":"m 65 893 b 182 776 65 826 115 776 b 300 893 249 776 300 826 b 182 1011 300 960 249 1011 b 65 893 115 1011 65 960 z m 90 694 l 90 0 l 274 0 l 274 694 z m 447 893 b 564 776 447 826 497 776 b 682 893 631 776 682 826 b 564 1011 682 960 631 1011 b 447 893 497 1011 447 960 z m 472 694 l 472 -4 b 333 -114 472 -78 444 -114 l 314 -114 l 314 -283 b 365 -285 333 -285 344 -285 b 656 -21 551 -285 656 -206 l 656 694 z "},"ĵ":{"ha":385,"x_min":0,"x_max":0,"o":"m 83 893 b 200 776 83 826 133 776 b 318 893 267 776 318 826 b 200 1011 318 960 267 1011 b 83 893 133 1011 83 960 z m 108 694 l 108 -4 b -31 -114 108 -78 81 -114 l -50 -114 l -50 -283 b 1 -285 -31 -285 -19 -285 b 292 -21 188 -285 292 -206 l 292 694 z "},"ķ":{"ha":768,"x_min":0,"x_max":0,"o":"m 522 0 l 758 0 l 460 396 l 758 694 l 515 694 l 264 428 l 264 972 l 81 972 l 81 0 l 264 0 l 264 201 l 336 272 z "},"ĺ":{"ha":344,"x_min":0,"x_max":0,"o":"m 81 972 l 81 0 l 265 0 l 265 972 z "},"ľ":{"ha":344,"x_min":0,"x_max":0,"o":"m 81 972 l 81 0 l 265 0 l 265 972 z "},"ļ":{"ha":344,"x_min":0,"x_max":0,"o":"m 81 972 l 81 0 l 265 0 l 265 972 z "},"ŀ":{"ha":344,"x_min":0,"x_max":0,"o":"m 81 972 l 81 0 l 265 0 l 265 972 z "},"ń":{"ha":813,"x_min":0,"x_max":0,"o":"m 258 594 l 258 694 l 81 694 l 81 0 l 264 0 l 264 332 b 415 535 264 456 308 535 b 542 385 493 535 542 489 l 542 0 l 729 0 l 729 431 b 483 711 729 606 646 711 b 258 594 382 711 307 663 z "},"ň":{"ha":813,"x_min":0,"x_max":0,"o":"m 258 594 l 258 694 l 81 694 l 81 0 l 264 0 l 264 332 b 415 535 264 456 308 535 b 542 385 493 535 542 489 l 542 0 l 729 0 l 729 431 b 483 711 729 606 646 711 b 258 594 382 711 307 663 z "},"ņ":{"ha":813,"x_min":0,"x_max":0,"o":"m 258 594 l 258 694 l 81 694 l 81 0 l 264 0 l 264 332 b 415 535 264 456 308 535 b 542 385 493 535 542 489 l 542 0 l 729 0 l 729 431 b 483 711 729 606 646 711 b 258 594 382 711 307 663 z "},"ŉ":{"ha":813,"x_min":0,"x_max":0,"o":"m 258 594 l 258 694 l 81 694 l 81 0 l 264 0 l 264 332 b 415 535 264 456 308 535 b 542 385 493 535 542 489 l 542 0 l 729 0 l 729 431 b 483 711 729 606 646 711 b 258 594 382 711 307 663 z "},"ō":{"ha":822,"x_min":0,"x_max":0,"o":"m 38 347 b 411 -17 38 131 197 -17 b 785 347 625 -17 785 131 b 411 711 785 564 625 711 b 38 347 197 711 38 564 z m 596 347 b 411 163 596 236 515 163 b 226 347 307 163 226 236 b 411 532 226 458 307 532 b 596 347 515 532 596 458 z "},"ŏ":{"ha":822,"x_min":0,"x_max":0,"o":"m 38 347 b 411 -17 38 131 197 -17 b 785 347 625 -17 785 131 b 411 711 785 564 625 711 b 38 347 197 711 38 564 z m 596 347 b 411 163 596 236 515 163 b 226 347 307 163 226 236 b 411 532 226 458 307 532 b 596 347 515 532 596 458 z "},"ő":{"ha":822,"x_min":0,"x_max":0,"o":"m 38 347 b 411 -17 38 131 197 -17 b 785 347 625 -17 785 131 b 411 711 785 564 625 711 b 38 347 197 711 38 564 z m 596 347 b 411 163 596 236 515 163 b 226 347 307 163 226 236 b 411 532 226 458 307 532 b 596 347 515 532 596 458 z "},"ǿ":{"ha":822,"x_min":0,"x_max":0,"o":"m 38 347 b 411 -17 38 131 197 -17 b 785 347 625 -17 785 131 b 411 711 785 564 625 711 b 38 347 197 711 38 564 z m 596 347 b 411 163 596 236 515 163 b 226 347 307 163 226 236 b 411 532 226 458 307 532 b 596 347 515 532 596 458 z "},"ŕ":{"ha":536,"x_min":0,"x_max":0,"o":"m 257 581 l 257 694 l 81 694 l 81 0 l 264 0 l 264 314 b 439 515 264 447 318 515 b 522 504 468 515 497 513 l 522 701 b 454 711 500 707 479 711 b 257 581 357 711 294 661 z "},"ř":{"ha":536,"x_min":0,"x_max":0,"o":"m 257 581 l 257 694 l 81 694 l 81 0 l 264 0 l 264 314 b 439 515 264 447 318 515 b 522 504 468 515 497 513 l 522 701 b 454 711 500 707 479 711 b 257 581 357 711 294 661 z "},"ŗ":{"ha":536,"x_min":0,"x_max":0,"o":"m 257 581 l 257 694 l 81 694 l 81 0 l 264 0 l 264 314 b 439 515 264 447 318 515 b 522 504 468 515 497 513 l 522 701 b 454 711 500 707 479 711 b 257 581 357 711 294 661 z "},"ś":{"ha":664,"x_min":0,"x_max":0,"o":"m 64 490 b 294 271 64 339 192 292 b 449 200 411 246 449 238 b 356 147 449 161 407 147 b 136 238 258 147 182 182 l 29 99 b 338 -17 90 21 204 -17 b 638 210 522 -17 638 51 b 415 428 638 356 536 401 b 254 497 292 454 254 463 b 343 546 254 528 286 546 b 531 475 417 546 492 518 l 633 608 b 357 711 572 671 483 711 b 64 490 175 711 64 631 z "},"ŝ":{"ha":664,"x_min":0,"x_max":0,"o":"m 64 490 b 294 271 64 339 192 292 b 449 200 411 246 449 238 b 356 147 449 161 407 147 b 136 238 258 147 182 182 l 29 99 b 338 -17 90 21 204 -17 b 638 210 522 -17 638 51 b 415 428 638 356 536 401 b 254 497 292 454 254 463 b 343 546 254 528 286 546 b 531 475 417 546 492 518 l 633 608 b 357 711 572 671 483 711 b 64 490 175 711 64 631 z "},"ş":{"ha":664,"x_min":0,"x_max":0,"o":"m 64 490 b 294 271 64 339 192 292 b 449 200 411 246 449 238 b 356 147 449 161 407 147 b 136 238 258 147 182 182 l 29 99 b 338 -17 90 21 204 -17 b 638 210 522 -17 638 51 b 415 428 638 356 536 401 b 254 497 292 454 254 463 b 343 546 254 528 286 546 b 531 475 417 546 492 518 l 633 608 b 357 711 572 671 483 711 b 64 490 175 711 64 631 z "},"ș":{"ha":664,"x_min":0,"x_max":0,"o":"m 64 490 b 294 271 64 339 192 292 b 449 200 411 246 449 238 b 356 147 449 161 407 147 b 136 238 258 147 182 182 l 29 99 b 338 -17 90 21 204 -17 b 638 210 522 -17 638 51 b 415 428 638 356 536 401 b 254 497 292 454 254 463 b 343 546 254 528 286 546 b 531 475 417 546 492 518 l 633 608 b 357 711 572 671 483 711 b 64 490 175 711 64 631 z "},"ť":{"ha":547,"x_min":0,"x_max":0,"o":"m 497 14 l 497 188 b 396 176 447 179 424 176 b 326 239 349 176 326 194 l 326 540 l 503 540 l 503 694 l 326 694 l 326 881 l 143 881 l 143 694 l 17 694 l 17 540 l 143 540 l 143 213 b 347 -7 143 54 218 -7 b 497 14 393 -7 446 1 z "},"ţ":{"ha":547,"x_min":0,"x_max":0,"o":"m 497 14 l 497 188 b 396 176 447 179 424 176 b 326 239 349 176 326 194 l 326 540 l 503 540 l 503 694 l 326 694 l 326 881 l 143 881 l 143 694 l 17 694 l 17 540 l 143 540 l 143 213 b 347 -7 143 54 218 -7 b 497 14 393 -7 446 1 z "},"ŧ":{"ha":547,"x_min":0,"x_max":0,"o":"m 497 14 l 497 188 b 396 176 447 179 424 176 b 326 239 349 176 326 194 l 326 540 l 503 540 l 503 694 l 326 694 l 326 881 l 143 881 l 143 694 l 17 694 l 17 540 l 143 540 l 143 213 b 347 -7 143 54 218 -7 b 497 14 393 -7 446 1 z "},"ț":{"ha":803,"x_min":0,"x_max":0,"o":"m 535 694 l 535 363 b 385 160 535 243 488 160 b 268 308 304 160 268 210 l 268 694 l 81 694 l 81 263 b 321 -17 81 92 160 -17 b 542 106 425 -17 494 35 l 542 0 l 719 0 l 719 694 z "},"ũ":{"ha":803,"x_min":0,"x_max":0,"o":"m 535 694 l 535 363 b 385 160 535 243 488 160 b 268 308 304 160 268 210 l 268 694 l 81 694 l 81 263 b 321 -17 81 92 160 -17 b 542 106 425 -17 494 35 l 542 0 l 719 0 l 719 694 z "},"ū":{"ha":803,"x_min":0,"x_max":0,"o":"m 535 694 l 535 363 b 385 160 535 243 488 160 b 268 308 304 160 268 210 l 268 694 l 81 694 l 81 263 b 321 -17 81 92 160 -17 b 542 106 425 -17 494 35 l 542 0 l 719 0 l 719 694 z "},"ŭ":{"ha":803,"x_min":0,"x_max":0,"o":"m 535 694 l 535 363 b 385 160 535 243 488 160 b 268 308 304 160 268 210 l 268 694 l 81 694 l 81 263 b 321 -17 81 92 160 -17 b 542 106 425 -17 494 35 l 542 0 l 719 0 l 719 694 z "},"ů":{"ha":803,"x_min":0,"x_max":0,"o":"m 535 694 l 535 363 b 385 160 535 243 488 160 b 268 308 304 160 268 210 l 268 694 l 81 694 l 81 263 b 321 -17 81 92 160 -17 b 542 106 425 -17 494 35 l 542 0 l 719 0 l 719 694 z "},"ű":{"ha":803,"x_min":0,"x_max":0,"o":"m 535 694 l 535 363 b 385 160 535 243 488 160 b 268 308 304 160 268 210 l 268 694 l 81 694 l 81 263 b 321 -17 81 92 160 -17 b 542 106 425 -17 494 35 l 542 0 l 719 0 l 719 694 z "},"ų":{"ha":803,"x_min":0,"x_max":0,"o":"m 535 694 l 535 363 b 385 160 535 243 488 160 b 268 308 304 160 268 210 l 268 694 l 81 694 l 81 263 b 321 -17 81 92 160 -17 b 542 106 425 -17 494 35 l 542 0 l 719 0 l 719 694 z "},"ẁ":{"ha":1182,"x_min":0,"x_max":0,"o":"m 417 0 l 592 413 l 765 0 l 904 0 l 1186 694 l 986 694 l 832 281 l 665 694 l 517 694 l 351 281 l 196 694 l -4 694 l 278 0 z "},"ẃ":{"ha":1182,"x_min":0,"x_max":0,"o":"m 417 0 l 592 413 l 765 0 l 904 0 l 1186 694 l 986 694 l 832 281 l 665 694 l 517 694 l 351 281 l 196 694 l -4 694 l 278 0 z "},"ŵ":{"ha":1182,"x_min":0,"x_max":0,"o":"m 417 0 l 592 413 l 765 0 l 904 0 l 1186 694 l 986 694 l 832 281 l 665 694 l 517 694 l 351 281 l 196 694 l -4 694 l 278 0 z "},"ẅ":{"ha":1182,"x_min":0,"x_max":0,"o":"m 417 0 l 592 413 l 765 0 l 904 0 l 1186 694 l 986 694 l 832 281 l 665 694 l 517 694 l 351 281 l 196 694 l -4 694 l 278 0 z "},"ỳ":{"ha":747,"x_min":0,"x_max":0,"o":"m 315 -278 l 753 694 l 558 694 l 388 314 l 210 694 l -4 694 l 290 100 l 121 -278 z "},"ŷ":{"ha":747,"x_min":0,"x_max":0,"o":"m 315 -278 l 753 694 l 558 694 l 388 314 l 210 694 l -4 694 l 290 100 l 121 -278 z "},"ź":{"ha":678,"x_min":0,"x_max":0,"o":"m 58 694 l 58 525 l 383 525 l 33 143 l 33 0 l 644 0 l 644 169 l 282 169 l 633 551 l 633 694 z "},"ż":{"ha":678,"x_min":0,"x_max":0,"o":"m 58 694 l 58 525 l 383 525 l 33 143 l 33 0 l 644 0 l 644 169 l 282 169 l 633 551 l 633 694 z "},"ŋ":{"ha":813,"x_min":0,"x_max":0,"o":"m 258 594 l 258 694 l 81 694 l 81 0 l 264 0 l 264 332 b 415 535 264 456 308 535 b 542 385 493 535 542 489 l 542 0 l 729 0 l 729 431 b 483 711 729 606 646 711 b 258 594 382 711 307 663 z "},"ĸ":{"ha":768,"x_min":0,"x_max":0,"o":"m 522 0 l 758 0 l 460 396 l 758 694 l 515 694 l 264 428 l 264 972 l 81 972 l 81 0 l 264 0 l 264 201 l 336 272 z "},"ﬀ":{"ha":1122,"x_min":0,"x_max":0,"o":"m 533 540 l 533 694 l 336 694 l 336 710 b 435 817 336 782 361 817 b 540 806 467 817 497 813 l 540 975 b 404 988 494 982 456 988 b 153 729 261 988 153 910 l 153 694 l 13 694 l 13 540 l 153 540 l 153 0 l 336 0 l 336 540 z m 1094 540 l 1094 694 l 897 694 l 897 710 b 996 817 897 782 922 817 b 1101 806 1028 817 1058 813 l 1101 975 b 965 988 1056 982 1017 988 b 714 729 822 988 714 910 l 714 694 l 574 694 l 574 540 l 714 540 l 714 0 l 897 0 l 897 540 z "},"Ǻ":{"ha":1100,"x_min":0,"x_max":0,"o":"m 550 706 l 715 347 l 385 347 z m 876 0 l 1090 0 l 640 972 l 460 972 l 10 0 l 224 0 l 294 153 l 806 153 z "},"ǻ":{"ha":747,"x_min":0,"x_max":0,"o":"m 489 281 b 329 138 489 204 426 138 b 231 211 265 138 231 167 b 317 288 231 250 260 279 l 489 308 z m 58 553 l 194 456 b 368 544 221 522 296 544 b 489 475 450 544 489 515 l 489 464 b 453 436 489 447 479 439 l 263 419 b 40 201 135 407 40 328 b 275 -15 40 74 138 -15 b 489 93 383 -15 453 38 l 489 -1 l 672 -1 l 672 428 b 368 710 672 621 571 710 b 58 553 217 710 104 657 z "},"Ё":{"ha":0,"x_min":0,"x_max":0,"o":""},"Ѓ":{"ha":0,"x_min":0,"x_max":0,"o":""},"Ї":{"ha":0,"x_min":0,"x_max":0,"o":""},"Љ":{"ha":0,"x_min":0,"x_max":0,"o":""},"Њ":{"ha":0,"x_min":0,"x_max":0,"o":""},"Ќ":{"ha":0,"x_min":0,"x_max":0,"o":""},"Ў":{"ha":0,"x_min":0,"x_max":0,"o":""},"Й":{"ha":0,"x_min":0,"x_max":0,"o":""},"й":{"ha":0,"x_min":0,"x_max":0,"o":""},"ё":{"ha":0,"x_min":0,"x_max":0,"o":""},"ѓ":{"ha":0,"x_min":0,"x_max":0,"o":""},"ї":{"ha":0,"x_min":0,"x_max":0,"o":""},"љ":{"ha":0,"x_min":0,"x_max":0,"o":""},"њ":{"ha":0,"x_min":0,"x_max":0,"o":""},"ќ":{"ha":0,"x_min":0,"x_max":0,"o":""},"ў":{"ha":0,"x_min":0,"x_max":0,"o":""},"Ґ":{"ha":0,"x_min":0,"x_max":0,"o":""},"ґ":{"ha":0,"x_min":0,"x_max":0,"o":""}}}
